<svg xmlns="http://www.w3.org/2000/svg" id="_Слой_1" data-name="Слой 1" viewBox="10.62 17.3 220.44 79.1"><defs><clipPath id="clippath"><path d="M2.16.88 243.71 0v118.31H0z" style="stroke-width:0;fill:none"/></clipPath><style>.cls-1{fill:#3c3c3b}.cls-1,.cls-2,.cls-5{stroke-width:0}.cls-2{fill:#36a9e1}.cls-5{fill:#1d71b8}</style></defs><g style="clip-path:url(#clippath)"><path d="M82.71 34.38c-11.98-11.95-26.09-9.17-31.91-7.17C42.02 29 30.95 39.13 29.81 55.26c0 0 .11-.22.33-.59.18-2.38.68-4.61 1.53-6.68 1.07-2.61 2.56-4.87 4.46-6.76 1.9-1.9 4.14-3.39 6.73-4.46s5.4-1.61 8.43-1.61c1.5 0 2.96.16 4.4.47q2.16.465 4.05 1.32c1.27.56 2.42 1.25 3.46 2.04 1.03.79.95.61 1.81 1.5 0 0 3.68-3.79 10.51-5.31h.03c.24-.06.48-.1.73-.16.25-.04.49-.08.73-.12.25-.04.5-.07.75-.11l.6-.06.2-.02c.2-.02.39-.03.58-.04 2.31-.15 3.82.08 3.82.08l-.25-.35Z" class="cls-5"/><path d="m217.06 35.34-2.2 2.21c-.95.94-.95 2.49 0 3.44l2.09 2.1c.94.94 2.49.94 3.44 0l2.21-2.21 2.21 2.21c.94.94 2.49.94 3.44 0l2.1-2.1c.95-.95.95-2.49 0-3.44l-2.21-2.21-5.53-5.53-5.53 5.53" style="stroke-width:0;fill:#1d71b8;fill-rule:evenodd"/><path d="m217.06 35.34-2.2-2.21c-.95-.94-.95-2.49 0-3.44l2.09-2.09a2.44 2.44 0 0 1 3.44 0l2.21 2.2-5.53 5.53m11.06.01-5.53-5.53 2.2-2.2c.47-.47 1.09-.71 1.72-.71s1.25.24 1.72.71l2.1 2.09c.95.94.95 2.49 0 3.44l-2.21 2.21m-5.53 5.52" style="stroke-width:0;fill:#89c3eb"/><path d="m222.6 40.87-5.54-5.53 5.53-5.53h.01l5.53 5.53z" style="stroke-width:0;fill:#2b98d5"/><path d="m217.06 35.346 5.532-5.528 5.528 5.532-5.532 5.528z" class="cls-2"/><path d="M93.97 85.81v-5.45l-2.26 5.45h-.4l-2.27-5.45v5.45h-1.08v-6.95h1.42l2.13 5.15 2.1-5.15h1.44v6.95zm2.83-3.48c0-2.01 1.44-3.64 3.42-3.64 2.1 0 3.34 1.64 3.34 3.72v.27h-5.62c.09 1.31 1.01 2.4 2.5 2.4.79 0 1.59-.32 2.14-.88l.52.7c-.69.69-1.63 1.07-2.76 1.07-2.06 0-3.54-1.48-3.54-3.65m3.41-2.74c-1.48 0-2.21 1.25-2.27 2.32h4.56c-.01-1.04-.7-2.32-2.29-2.32m4.27 5.34c.65-.11 1.05-.58 1.32-2.63l.45-3.42h4.83v6h.81v2.72h-1.08v-1.77h-5.25v1.77h-1.08v-2.66Zm2.4-2.51c-.17 1.31-.5 2.04-1.01 2.44H110V79.8h-2.8l-.32 2.6Zm6.49 3.4v-6.95h1.08v5.31l3.64-5.31h1.06v6.95h-1.08V80.4l-3.66 5.41zm13.45 0h-5.51v-6.95h1.08v6h3.62v-6h1.08v6h.8v2.72h-1.07zm2.56 0v-6.95h1.08v5.31l3.63-5.31h1.07v6.95h-1.08V80.4l-3.67 5.41zm7.93 0v-6.95h1.08v2.89h3.63v-2.89h1.07v6.95h-1.07V82.7h-3.63v3.11zm7.54-3.48c0-2.06 1.39-3.64 3.46-3.64 1.27 0 2.01.52 2.54 1.21l-.72.66c-.46-.63-1.05-.91-1.77-.91-1.48 0-2.4 1.14-2.4 2.68s.92 2.69 2.4 2.69c.72 0 1.31-.29 1.77-.91l.72.66c-.53.69-1.28 1.21-2.54 1.21-2.07 0-3.46-1.58-3.46-3.65m12.25 3.48-2.5-3.12-1.15 1.14v1.98h-1.08v-6.95h1.08v3.7l3.65-3.7h1.37l-3.08 3.15 3.09 3.8zm2.66 0v-6.95h1.08v5.31l3.64-5.31h1.06v6.95h-1.07V80.4l-3.67 5.41zm7.94 0v-6.94h1.08v5.31l3.64-5.31h1.06v6.94h-1.08V80.4l-3.67 5.41h-1.04Zm2.89-7.74c-1.02 0-1.94-.49-2.53-1.26l.53-.46c.46.63 1.15 1.04 2 1.04s1.54-.39 1.98-1.04l.53.46c-.58.78-1.48 1.26-2.52 1.26m14.28 7.74h-5.51v-6.95h1.08v6h3.62v-6h1.08v6h.81v2.72h-1.08zm2.16-3.48c0-2.01 1.44-3.64 3.42-3.64 2.1 0 3.34 1.64 3.34 3.72v.27h-5.62c.09 1.31 1.01 2.4 2.5 2.4.79 0 1.6-.32 2.14-.88l.52.7c-.69.69-1.63 1.07-2.76 1.07-2.06 0-3.54-1.48-3.54-3.65m3.4-2.74c-1.48 0-2.21 1.25-2.27 2.32h4.56c-.01-1.04-.7-2.32-2.29-2.32m5.1 6.23v-6.95h1.07v2.89h3.63v-2.89h1.08v6.95h-1.08V82.7h-3.63v3.11zm9.2 0v-6h-2.01v-.95h5.12v.95h-2.03v6zm5.59-1.05v3.7h-1.08v-9.59h1.08v1.04c.5-.7 1.37-1.21 2.34-1.21 1.83 0 3.09 1.38 3.09 3.64s-1.26 3.65-3.09 3.65c-.95 0-1.78-.45-2.34-1.22m4.3-2.44c0-1.54-.83-2.68-2.23-2.68-.85 0-1.7.5-2.07 1.11v3.14c.37.6 1.22 1.12 2.07 1.12 1.4 0 2.23-1.15 2.23-2.69" class="cls-5"/><path d="M83.63 77.53c-5.65 6.05-13.69 9.84-22.62 9.84-17.09 0-30.94-13.85-30.94-30.94s13.85-30.94 30.94-30.94c8.46 0 16.12 3.4 21.71 8.9C75.59 24.07 63.67 17.3 50.17 17.3c-21.85 0-39.55 17.71-39.55 39.55S28.32 96.4 50.17 96.4c14.26 0 26.76-7.55 33.71-18.87-.08 0-.16 0-.25.01" class="cls-2"/><path d="M92.58 46.34c-1.28-1.28-2.84-2.3-4.63-3.02s-3.78-1.08-5.91-1.08-4.06.37-5.85 1.08c-1.79.72-3.35 1.74-4.63 3.02-1.29 1.29-2.3 2.83-3.02 4.57-.72 1.75-1.08 3.68-1.08 5.74s.37 3.99 1.08 5.74a14 14 0 0 0 3.02 4.57c1.29 1.29 2.85 2.3 4.63 3.02 1.79.72 3.76 1.08 5.85 1.08s4.12-.36 5.91-1.08 3.34-1.73 4.63-3.02c1.28-1.28 2.3-2.82 3.02-4.57s1.08-3.68 1.08-5.74-.36-3.99-1.08-5.74-1.74-3.29-3.02-4.57M82.04 67.21c-1.53 0-2.92-.27-4.12-.81a9.3 9.3 0 0 1-3.11-2.23 10 10 0 0 1-1.99-3.37c-.47-1.28-.7-2.68-.7-4.14s.24-2.85.7-4.14a10 10 0 0 1 1.99-3.37c.86-.95 1.9-1.71 3.11-2.27s2.59-.84 4.12-.84 2.92.28 4.15.84c1.23.55 2.28 1.32 3.14 2.26.85.95 1.53 2.08 1.99 3.37.47 1.29.7 2.68.7 4.14s-.24 2.85-.7 4.14-1.14 2.42-1.99 3.37c-.85.94-1.91 1.7-3.13 2.23-1.23.54-2.62.81-4.15.81m39.25-13.4h-14.83V42.93h-4.44v27.45h4.44V57.61h14.83v12.77h4.44V42.93h-4.44zm31.32-7.45c-1.19-1.29-2.66-2.3-4.37-3.03-1.72-.72-3.67-1.09-5.8-1.09-2.99 0-5.46.56-7.35 1.68-1.88 1.11-3.39 2.46-4.48 4.02l-.14.19 3.24 2.78.16-.27c.7-1.22 1.78-2.31 3.19-3.22s3.2-1.37 5.33-1.37c1.41 0 2.69.23 3.81.7s2.09 1.11 2.91 1.9c.82.8 1.47 1.72 1.93 2.74.43.94.69 1.92.79 2.94h-15.17v3.63h15.23c-.07 1.2-.35 2.35-.83 3.43a9.9 9.9 0 0 1-2.1 3.02c-.87.86-1.91 1.54-3.08 2.05-1.17.5-2.44.75-3.78.75-1.97 0-3.7-.46-5.12-1.37-1.44-.91-2.54-1.98-3.29-3.17l-.15-.25-3.37 2.64.16.2c1.63 2.06 3.45 3.55 5.42 4.45 1.96.9 4.1 1.35 6.35 1.35 2.02 0 3.92-.36 5.65-1.08s3.24-1.73 4.49-3.02c1.25-1.28 2.25-2.82 2.96-4.57.72-1.75 1.08-3.68 1.08-5.74s-.32-3.98-.94-5.73c-.63-1.75-1.54-3.29-2.73-4.58m28.7 13.99c-1.72-2.33-4.14-4.04-7.18-5.06l10.59-12.33h-5.06l-9.64 11.37c-1.23-.2-2.56-.31-3.95-.32V42.93h-4.44v27.45h4.44V57.85c1.97.05 3.76.27 5.31.65 1.61.39 3.03 1.07 4.24 2.02s2.23 2.22 3.04 3.77c.81 1.56 1.49 3.55 2.02 5.89l.05.2h4.92l-.08-.33c-1.04-4.04-2.47-7.31-4.24-9.73m29.4 3.28-.16.21c-.74 1-1.7 1.83-2.85 2.46s-2.57.95-4.25.95c-1.53 0-2.93-.27-4.16-.81-1.22-.54-2.28-1.29-3.13-2.23-.85-.95-1.53-2.08-1.99-3.34-.47-1.26-.7-2.67-.7-4.17s.24-2.91.7-4.2 1.14-2.42 2.02-3.36c.87-.95 1.94-1.7 3.16-2.24 1.23-.54 2.63-.81 4.15-.81 1.4 0 2.73.33 3.93.97 1.2.65 2.13 1.48 2.75 2.47l.15.23 3.49-2.5-.16-.21c-1.17-1.57-2.73-2.77-4.62-3.57s-3.77-1.2-5.59-1.2c-2.21 0-4.24.37-6.03 1.08-1.79.72-3.34 1.74-4.6 3.02a13.8 13.8 0 0 0-2.97 4.58c-.69 1.75-1.05 3.68-1.05 5.73s.35 3.99 1.05 5.73c.7 1.75 1.7 3.29 2.97 4.58 1.26 1.29 2.81 2.3 4.6 3.02s3.82 1.08 6.03 1.08c2.36 0 4.43-.44 6.13-1.3 1.69-.85 3.15-2.02 4.31-3.46l.17-.21-3.36-2.5Z" class="cls-1"/><path d="m65.38 71.45.18.21c-.82.99-.51.65-1.48 1.58-.98.92-2.11 1.73-3.4 2.44-1.29.7-2.7 1.26-4.26 1.67-1.55.41-3.25.61-5.09.61-3.07 0-5.91-.54-8.52-1.61s-4.85-2.56-6.73-4.46-3.34-4.15-4.4-6.76c-.49-1.2-.85-2.46-1.11-3.76l-.18-.22s.41 12.59 13.44 21.05c0 0 7.43 5.71 18.9 5.14 0 0 12.78-.45 20.89-9.79-11.09-.28-16.9-4.88-18.25-6.09" class="cls-5"/><path d="M65.56 71.66c-.82.99-.51.65-1.48 1.58-.98.92-2.11 1.73-3.39 2.44-1.29.7-2.7 1.26-4.26 1.67-1.55.41-3.25.61-5.09.61-3.07 0-5.91-.54-8.52-1.61s-4.85-2.56-6.73-4.46-3.35-4.15-4.4-6.76c-1.06-2.61-1.58-5.47-1.58-8.57s.54-5.96 1.61-8.57 2.56-4.86 4.46-6.76 4.14-3.39 6.73-4.46 5.4-1.61 8.43-1.61c1.5 0 2.96.16 4.4.47s2.79.75 4.06 1.32q1.905.84 3.45 2.04c1.04.79.95.61 1.81 1.5l-2.97 3.42c-.42-.65-.69-1.01-1.4-1.66a11.6 11.6 0 0 0-2.5-1.73c-.96-.5-2.01-.9-3.14-1.21s-2.35-.46-3.66-.46c-2.64 0-5.01.48-7.1 1.43-2.09.96-3.87 2.25-5.32 3.87-1.46 1.63-2.57 3.51-3.34 5.65s-1.15 4.4-1.15 6.77.39 4.63 1.18 6.77c.78 2.14 1.91 4.02 3.37 5.65 1.45 1.62 3.23 2.91 5.32 3.87s4.44 1.44 7.04 1.44c2.34 0 4.57-.48 6.67-1.44 2.11-.96 3.48-1.94 4.9-4.05l2.59 2.88Z" class="cls-1"/></g></svg>