<svg xmlns="http://www.w3.org/2000/svg" fill="none" viewBox="10.14 0.25 491.72 511.25">
<path d="M243.5 1.39999C233.9 4.49999 228.9 8.19999 210 26.2C198.3 37.4 189.5 45 187.5 45.7C184.7 46.7 180.1 46.3 159.8 43.4C132.3 39.6 128.8 39.4 120.5 41.5C108.3 44.7 98 52.8 92.4 63.6C88.5 70.9 87.9 73.6 83.5 99C81.5 110.3 79.4 121 78.9 122.8C77.5 127.2 74.6 129.1 53 140.6C30.6 152.4 23.9 156.8 19.9 162.3C12.3 172.7 9.40001 182.2 10.3 193.9C11 202.9 12.6 206.9 25.4 233.2C31.1 245 35 254.2 35 256C35 257.8 31.1 267 25.4 278.8C12.6 305.1 11 309.1 10.3 318.1C9.40001 329.8 12.3 339.3 19.9 349.7C23.9 355.2 30.6 359.6 53 371.4C74.6 382.9 77.5 384.8 78.9 389.2C79.5 391 81.7 402.6 83.9 415C88.3 439.9 89.3 443.5 94.1 451.6C101.5 463.9 116.7 472.1 131.8 472C134.4 471.9 147.3 470.4 160.5 468.6C179.9 465.9 185 465.5 187.6 466.4C189.5 467 198.9 475.2 210.2 485.9C226.8 501.8 230.5 504.8 237 507.9C244.3 511.4 244.9 511.5 256 511.5C267.1 511.5 267.7 511.4 275 507.9C281.5 504.8 285.2 501.8 301.8 485.9C315.9 472.5 322.1 467.2 324.8 466.4C327.8 465.5 332.9 466 352 468.6C378.9 472.4 383.3 472.6 391.5 470.5C403.7 467.3 414 459.2 419.6 448.4C423.5 441.1 424.1 438.4 428.5 413C430.5 401.7 432.6 391 433.1 389.2C434.5 384.8 437.4 382.9 459 371.4C481.4 359.6 488.1 355.2 492.1 349.7C499.7 339.3 502.6 329.8 501.7 318.1C501 309.1 499.4 305.1 486.6 278.8C480.9 267 477 257.8 477 256C477 254.2 480.9 245 486.6 233.2C499.4 206.9 501 202.9 501.7 193.9C502.6 182.2 499.7 172.7 492.1 162.3C488.1 156.8 481.4 152.4 459 140.6C437.4 129.1 434.5 127.2 433.1 122.8C432.6 121 430.5 110.3 428.5 99C424.1 73.6 423.5 70.9 419.6 63.6C414 52.8 403.7 44.7 391.5 41.5C383.2 39.4 379.7 39.6 352.2 43.4C331.9 46.3 327.3 46.7 324.5 45.7C322.5 45 313.7 37.4 301.8 26.1C285.1 10.2 281.5 7.19999 275 4.09999C268.2 0.799992 266.6 0.499992 257.5 0.299992C251.2 0.0999924 246 0.499992 243.5 1.39999ZM261.3 31.4C263.1 32.2 272.9 40.8 283.1 50.6C302.1 69 307.7 73 317.4 75.6C324.9 77.6 332 77.3 357.5 73.6C372.6 71.4 381.5 70.6 383.4 71.1C387.2 72.2 390.6 74.5 392.5 77.3C393.3 78.5 395.8 89.9 398 102.5C404 136.5 405.3 139.9 415.2 149.7C419.3 153.7 425.5 157.5 442.5 166.5C454.6 173 465.7 179.5 467.2 181C470.1 184.1 472.2 190.1 471.4 192.8C471.1 193.7 465.7 205.3 459.4 218.5C446.7 245.2 445.3 250.2 447.1 262.7C447.8 268.2 450.2 274.2 459.4 293.5C465.7 306.7 471.1 318.3 471.4 319.2C472.2 321.9 470.1 327.9 467.2 331C465.7 332.5 454.6 339 442.5 345.5C425.5 354.5 419.3 358.3 415.2 362.3C405.3 372.1 404 375.5 398 409.5C395.8 422.1 393.3 433.5 392.5 434.7C390.6 437.5 387.2 439.8 383.4 440.9C381.5 441.4 372.6 440.6 357.5 438.4C332 434.7 324.9 434.4 317.4 436.4C307.7 439 302.1 443 282.6 461.8C261.8 481.7 259.3 483.3 252.3 481.2C249.5 480.4 243.4 475.2 229.4 461.8C209.6 442.8 204.7 439.2 194.5 436.5C186.2 434.4 180.6 434.6 154.5 438.4C139.4 440.6 130.5 441.4 128.6 440.9C124.8 439.8 121.4 437.5 119.5 434.7C118.7 433.5 116.2 422.1 114 409.5C108 375.5 106.7 372.1 96.8 362.3C92.7 358.3 86.5 354.5 69.5 345.5C57.4 339 46.3 332.5 44.8 331C41.9 327.9 39.8 321.9 40.6 319.2C40.9 318.3 46.3 306.7 52.6 293.5C65.3 266.8 66.7 261.8 64.9 249.3C64.2 243.8 61.8 237.8 52.6 218.5C46.3 205.3 40.9 193.7 40.6 192.8C39.8 190.1 41.9 184.1 44.8 181C46.3 179.5 57.4 173 69.5 166.5C86.5 157.5 92.7 153.7 96.8 149.7C106.7 139.9 108 136.5 114 102.5C116.2 89.9 118.7 78.5 119.5 77.3C121.4 74.5 124.8 72.2 128.6 71.1C130.5 70.6 139.4 71.4 154.5 73.6C180 77.3 187.1 77.6 194.6 75.6C204.3 73 209.9 69 228.9 50.6C250.9 29.5 253.4 28 261.3 31.4Z" fill="currentColor"/>
<path d="M183 124.4C168.1 128.7 155 139.2 148.5 152C140.1 168.6 140.6 189.2 149.8 205C153.5 211.3 164.5 221.9 170.7 225.3C177.3 228.8 189.7 232 197 232C204.7 232 217 228.7 223.8 224.8C235.8 217.9 245.5 205.4 249.5 191.5C252 183.2 251.7 169.4 249.1 160.9C244.2 145.3 230.9 131.5 215.3 125.8C208.1 123.1 190 122.4 183 124.4ZM203.6 154.5C214.2 157.6 221.7 168.1 220.8 178.4C219 199.2 194.7 208.5 180.2 194C175.7 189.5 173.9 185.6 173.3 179.1C172.3 168.4 178.8 158.5 189.2 154.9C195.7 152.7 197.3 152.6 203.6 154.5Z" fill="currentColor"/>
<path d="M348.5 144.1C346.5 144.7 313.6 176.9 245.3 245.2C161.5 329 144.8 346.1 143.9 349.3C140.9 360.4 150.3 370.4 161.8 368.4C165.1 367.9 176.5 356.8 266.3 267.1C374.4 159.1 370 163.9 368.4 155.4C367.5 150.6 362.7 145.3 358.2 144C353.9 142.8 352.6 142.9 348.5 144.1Z" fill="currentColor"/>
<path d="M301.2 282C282.6 286.9 268 301.4 262.5 320.5C260.1 328.7 260.3 342.6 262.9 351.1C267.9 366.9 282.1 381.5 297.6 386.6C305.9 389.3 324.1 389.3 332.4 386.6C344.3 382.6 357.1 372 362.9 361.1C367.6 352.1 369.4 344.7 369.3 334C369.2 318.3 364.5 307.4 353 296C345.1 288.2 338.8 284.6 328.4 282C318.8 279.5 310.7 279.5 301.2 282ZM324.5 312.9C336.6 318.3 342.1 332 337 343.8C332.4 354.4 321.1 360.5 310.3 358C298.9 355.5 290.5 344.9 291.2 334C292.2 320.7 302.2 311 315 311C318.2 311 322.2 311.8 324.5 312.9Z" fill="currentColor"/>
</svg>