<svg xmlns="http://www.w3.org/2000/svg" fill="none" viewBox="0 0 512 512">
<g clip-path="url(#clip0_29_1333)">
<path d="M91.1 1.99994C79.3 6.29994 70.4 14.2999 64.7 25.8999L61.5 32.4999V256V479.5L64.7 486.1C70.5 498 79.5 505.9 91.6 510C97.4 512 100.1 512 258 511.8L418.5 511.5L425.5 508.1C434.7 503.6 442.6 495.7 447.1 486.5L450.5 479.5L450.8 305.5C450.9 209.8 450.8 130.4 450.5 129C449.8 126.4 332.9 8.29994 325.6 2.89994L321.7 -5.64558e-05H209.1C100.5 0.0999435 96.3 0.0999435 91.1 1.99994ZM301.2 73.6999L301.5 117.5L304.7 124.1C310.5 135.9 319.3 143.8 331.5 148C337 149.9 339.9 150 379.2 150H421L420.8 310.2L420.5 470.5L418.3 474C417.1 475.9 414.6 478.4 412.8 479.5C409.5 481.5 407.7 481.5 256 481.5C104.3 481.5 102.5 481.5 99.2 479.5C97.4 478.4 94.9 475.9 93.7 474L91.5 470.5V256V41.4999L93.7 37.9999C96.1 34.0999 99 31.9999 103.5 30.8999C105.2 30.4999 150.2 30.1999 203.7 30.0999L300.9 29.9999L301.2 73.6999ZM393.3 119.8C390.6 120 378.2 120 365.5 119.8C339.7 119.5 338.1 119.1 333.7 112C331.6 108.7 331.5 107.3 331.2 80.4999L330.9 52.4999L364.5 85.9999L398 119.5L393.3 119.8Z" fill="black"/>
<path d="M157.6 213.9C153 217 151 220.8 151 227C151 233.2 153 237 157.6 240.1C160.4 241.9 164.1 242 256 242C347.9 242 351.6 241.9 354.4 240.1C359 237 361 233.2 361 227C361 220.8 359 217 354.4 213.9C351.6 212.1 347.9 212 256 212C164.1 212 160.4 212.1 157.6 213.9Z" fill="black"/>
<path d="M157.6 273.9C153 277 151 280.8 151 287C151 293.2 153 297 157.6 300.1C160.4 301.9 164.1 302 256 302C347.9 302 351.6 301.9 354.4 300.1C359 297 361 293.2 361 287C361 280.8 359 277 354.4 273.9C351.6 272.1 347.9 272 256 272C164.1 272 160.4 272.1 157.6 273.9Z" fill="black"/>
<path d="M157.6 333.9C153 337 151 340.8 151 347C151 353.2 153 357 157.6 360.1C160.4 361.9 164.1 362 256 362C347.9 362 351.6 361.9 354.4 360.1C359 357 361 353.2 361 347C361 340.8 359 337 354.4 333.9C351.6 332.1 347.9 332 256 332C164.1 332 160.4 332.1 157.6 333.9Z" fill="black"/>
<path d="M157.6 393.9C153 397 151 400.8 151 407C151 413.2 153 417 157.6 420.1C160.4 421.9 163.5 422 226 422C288.5 422 291.6 421.9 294.4 420.1C299 417 301 413.2 301 407C301 400.8 299 397 294.4 393.9C291.6 392.1 288.5 392 226 392C163.5 392 160.4 392.1 157.6 393.9Z" fill="black"/>
</g>
<defs>
<clipPath id="clip0_29_1333">
<rect width="512" height="512" fill="white"/>
</clipPath>
</defs>
</svg>