<svg xmlns="http://www.w3.org/2000/svg" fill="none" viewBox="0 151 512 210">
<path d="M102.6 152.6C84.9 156.1 68.7 163.7 55 175.1L50.4 178.8L30.5 179.2C12 179.5 10.2 179.7 7 181.7C2 184.8 0 188.7 0 195.4C0 200.6 0.3 201.4 3.9 205.3L7.9 209.5L17.4 209.8C22.7 210 27 210.3 27 210.5C27 210.6 25.8 213.8 24.4 217.6C19.2 231.5 17.6 240.4 17.7 256C17.7 276.5 21.9 292.6 31.2 308.4C50.9 341.9 84.1 361 122.5 361C173.6 361 216.1 325.9 226.1 275.5C227.9 266.5 227.9 245.5 226.1 236.5C225.3 232.6 223.7 226.4 222.4 222.7L220.1 215.9L226.1 212C245.8 199.3 268 199.6 287.3 212.9L291.8 216L288.9 224.9C276.9 262.2 288.1 305.1 316.9 332.3C337.1 351.3 361.6 361 389.5 361C439.8 361 481.4 327.4 492.7 277.6C493.8 272.9 494.3 265.6 494.3 256C494.4 240.4 492.8 231.5 487.6 217.6C486.2 213.8 485 210.6 485 210.5C485 210.3 489.3 210 494.6 209.8L504.1 209.5L508.1 205.3C511.7 201.4 512 200.6 512 195.4C512 188.7 510 184.8 505 181.7C501.8 179.7 500 179.5 481.5 179.2L461.6 178.8L457 175.1C437.6 159.1 415 151 389.5 151C360.8 151 336.7 160.8 315.5 181.1L307.5 188.8L304 186.3C295.5 180.3 282.8 175 272 173C262.6 171.2 244.5 171.7 235.5 174C227.2 176.1 214.1 182 208 186.3L204.5 188.8L196.5 181.1C180.3 165.6 163 156.5 141.7 152.5C132 150.7 112.1 150.7 102.6 152.6ZM140.2 183.9C161.3 189.3 179.7 204.3 189 223.5C194.7 235.4 196.4 242.6 196.4 256C196.4 269.4 194.7 276.6 189 288.5C176.9 313.6 150.8 330 123.1 330C110.8 330 102.1 328.1 91.8 323.2C75.6 315.6 63.6 304 56.1 288.6C50.3 276.7 48.6 269.5 48.6 256C48.6 242.5 50.3 235.3 56.1 223.4C65.5 204.3 83.7 189.4 104.4 184C114.2 181.4 130.2 181.4 140.2 183.9ZM407.2 183.9C433.3 190.6 454.6 211.7 461.6 238C464 246.7 464 265.1 461.6 274C455 299 435.5 319.2 410.5 327.2C401.6 330.1 383.4 330.7 373.7 328.6C352.3 323.8 332.5 308.2 323 288.5C317.3 276.6 315.6 269.4 315.6 256C315.6 242.6 317.3 235.4 323 223.5C332.2 204.5 350.6 189.4 371.4 184C381.2 181.4 397.2 181.4 407.2 183.9Z" fill="currentColor"/>
</svg>