<svg xmlns="http://www.w3.org/2000/svg" fill="none" viewBox="32 0 447.92 512">
<path d="M38.9 2.29999C37 3.49999 34.7 6.09999 33.8 7.99999C32.1 11.3 32 25.2 32 256C32 486.8 32.1 500.7 33.8 504C34.7 505.9 37 508.5 38.9 509.7L42.3 512L233.1 511.8L424 511.5L427.7 507.7L431.5 504L431.8 471.5L432.1 439.1L435.6 438.1C437.5 437.6 443 433.8 447.7 429.8C467.9 412.8 471.9 408 476.9 395.2L479.5 388.5L479.8 253C480.1 102.4 480.4 109.1 473.5 97.4C465.6 84 453.4 76.3 435.8 73.5L432.1 72.9L431.8 40.4L431.5 7.89999L427.3 3.89999L423.1 -7.62939e-06H232.7H42.3L38.9 2.29999ZM401 56.6V83.2L395.9 88.7C390.3 94.9 387 100.8 384.6 108.9C383.2 113.8 383 128.1 383 249.3C383 398.2 382.7 389.9 389.3 402.4C391 405.6 394.3 410.4 396.7 413L401 417.8V449.9V482H232H63V256V30H232H401V56.6ZM441.1 107.5C443.2 108.8 445.7 111.8 446.9 114.2C448.9 118.5 449 120 449 155.8V193H431.5H414V155.5C414 120 414.1 117.7 416 114C420.8 104.6 432.3 101.6 441.1 107.5ZM448.8 303.7L448.5 383.5L445.8 388C444.4 390.5 440.5 394.8 437.3 397.7L431.4 402.8L425.1 397.2C420.9 393.5 417.9 389.8 416.4 386.5L414 381.5V302.7V224H431.5H449L448.8 303.7Z" fill="currentColor"/>
<path d="M108.9 93.4C102.6 97.7 102.5 98.7 102.5 136.5C102.5 174.4 102.5 174.7 109.4 178.9C112.8 181 113.6 181.1 148.9 180.8L185 180.5L188.7 176.7L192.5 173V136V99L188.7 95.3L185 91.5L148.7 91.2L112.5 90.9L108.9 93.4ZM162 136V151H147.5H133V136V121H147.5H162V136Z" fill="currentColor"/>
<path d="M239.2 93C234.7 95.8 232 100.6 232 106C232 111.4 234.7 116.2 239.2 119C242.4 120.9 244.4 121 292.1 121H341.7L345.1 118.7C354.1 112.7 354.1 99.3 345.1 93.3L341.7 91H292.1C244.4 91 242.4 91.1 239.2 93Z" fill="currentColor"/>
<path d="M239.2 153C234.7 155.8 232 160.6 232 166C232 171.4 234.7 176.2 239.2 179C242.4 181 244 181 280.7 180.8L319 180.5L322.7 176.7C326.4 173.1 326.5 172.7 326.5 166C326.5 159.3 326.4 158.9 322.7 155.3L319 151.5L280.7 151.2C244 151 242.4 151 239.2 153Z" fill="currentColor"/>
<path d="M108.9 213.4C102.6 217.7 102.5 218.7 102.5 256.5C102.5 294.4 102.5 294.7 109.4 298.9C112.8 301 113.6 301.1 148.9 300.8L185 300.5L188.7 296.7L192.5 293V256V219L188.7 215.3L185 211.5L148.7 211.2L112.5 210.9L108.9 213.4ZM162 256V271H147.5H133V256V241H147.5H162V256Z" fill="currentColor"/>
<path d="M239.2 213C234.7 215.8 232 220.6 232 226C232 231.4 234.7 236.2 239.2 239C242.4 240.9 244.4 241 292.1 241H341.7L345.1 238.7C354.1 232.7 354.1 219.3 345.1 213.3L341.7 211H292.1C244.4 211 242.4 211.1 239.2 213Z" fill="currentColor"/>
<path d="M239.2 273C234.7 275.8 232 280.6 232 286C232 291.4 234.7 296.2 239.2 299C242.4 301 244 301 280.7 300.8L319 300.5L322.7 296.7C326.4 293.1 326.5 292.7 326.5 286C326.5 279.3 326.4 278.9 322.7 275.3L319 271.5L280.7 271.2C244 271 242.4 271 239.2 273Z" fill="currentColor"/>
<path d="M108.9 333.4C102.6 337.7 102.5 338.7 102.5 376.5C102.5 414.4 102.5 414.7 109.4 418.9C112.8 421 113.6 421.1 148.9 420.8L185 420.5L188.7 416.7L192.5 413V376V339L188.7 335.3L185 331.5L148.7 331.2L112.5 330.9L108.9 333.4ZM162 376V391H147.5H133V376V361H147.5H162V376Z" fill="currentColor"/>
<path d="M239.2 333C234.7 335.8 232 340.6 232 346C232 351.4 234.7 356.2 239.2 359C242.4 360.9 244.4 361 292.1 361H341.7L345.1 358.7C354.1 352.7 354.1 339.3 345.1 333.3L341.7 331H292.1C244.4 331 242.4 331.1 239.2 333Z" fill="currentColor"/>
<path d="M239.2 393C234.7 395.8 232 400.6 232 406C232 411.4 234.7 416.2 239.2 419C242.4 421 244 421 280.7 420.8L319 420.5L322.7 416.7C326.4 413.1 326.5 412.7 326.5 406C326.5 399.3 326.4 398.9 322.7 395.3L319 391.5L280.7 391.2C244 391 242.4 391 239.2 393Z" fill="currentColor"/>
</svg>