<svg xmlns="http://www.w3.org/2000/svg" fill="none" viewBox="49.18 43.16 413.71 425.66">
<path d="M313.3 44.9999C307.6 47.8999 304.7 52.6999 304.7 59.4999C304.7 68.4999 306.8 70.6999 324.1 79.4999C342.7 89.0999 357 99.0999 370.6 112.3C403.5 143.9 422 180.3 428.8 226.7C430.3 236.4 431.4 240.7 433 243C439.8 252.5 455.7 251.3 461 240.9C463.4 236.3 463.5 232.1 461.4 218.1C453.6 164.2 425.9 114.1 385.1 79.7999C372 68.7999 354 56.9999 339.2 49.6999C324.7 42.5999 319.8 41.6999 313.3 44.9999Z" fill="currentColor"/>
<path d="M139.3 45.4C136.4 46.1 131.2 48.1 127.8 49.8C120.4 53.5 82.3001 82.2 73.0001 91.2C57.0001 106.5 47.6001 131.3 49.4001 153.3C50.7001 168.6 57.1001 196.2 65.2001 221C85.7001 283.7 119.5 338.6 166.5 385.5C191.5 410.5 216.8 430.4 244.8 447.3C275.8 465.9 286.9 469.6 308.8 468.7C322.6 468.2 330.6 466.2 341.5 460.8C351 456 391.9 425.9 398.6 418.8C414.9 401.4 418.7 374.2 408 352.8C404.4 345.4 376.6 308 370.3 301.8C359.2 291 345.6 285.6 329.5 285.6C313.1 285.6 305 288.8 285.2 303.2C278.4 308.1 272.3 312.3 271.6 312.6C269.8 313.3 261.7 305.8 248.7 291.5C235.6 277.1 220.7 257.6 211 241.9C202 227.5 189.6 203 190.7 202C191.1 201.6 197.1 197.2 204 192.2C218.9 181.4 224 176.7 229 168.8C234.8 159.9 237.1 152.2 237.7 140C238.3 127.9 236.8 120.3 232 110.5C228 102.5 202 66.9 195 60C188.7 53.8 178.2 47.8 169.4 45.5C162.4 43.7 146.7 43.6 139.3 45.4Z" fill="currentColor"/>
<path d="M285.5 116.4C278.9 119.3 275 127 276.4 134.4C277.7 141.1 280.8 144 291.1 148.5C326 163.6 348 193.9 351.8 232C352.9 242.8 355.2 246.9 361.6 250C369.4 253.8 378.5 250.7 382.5 242.9C385.7 236.8 383.6 216.2 378 198.7C366.4 162.5 337.4 131.3 302.8 118C294.4 114.7 290.2 114.4 285.5 116.4Z" fill="currentColor"/>
</svg>