<svg xmlns="http://www.w3.org/2000/svg" fill="none" viewBox="0 0 512.08 512.14">
<g clip-path="url(#clip0_29_1351)">
<path d="M223.5 1.49998C177.3 7.49998 134.7 25.3 98.0002 53.9C86.1002 63.1 66.3002 82.6 56.7002 94.5C29.0002 128.8 10.8002 169.1 3.00024 213.1C0.200239 228.7 -0.899761 266.2 0.900239 283.3C7.00024 340.4 31.4002 392.4 71.5002 433.9C107.9 471.5 153.6 496.9 203.2 507.1C236.6 513.9 276.5 513.8 309.5 506.9C407.4 486.4 485.6 408.4 506.9 309.9C513.8 277.7 513.8 234.3 506.9 202.1C483.9 95.6 395.7 14.9 288 1.49998C272.8 -0.30002 237.9 -0.30002 223.5 1.49998ZM263.8 94.1C266.4 95.4 269.2 97.9 270.8 100.3L273.5 104.4L273.8 176.1L274.1 247.9L317.5 282.6C364.1 319.9 365 320.8 365 329.6C365 337.3 358.2 345.1 350.3 346.6C343.1 348 340.6 346.3 291.6 307.1C265.6 286.3 243.4 268.1 242.2 266.5C241 265 239.5 262.1 238.9 260.1C238.2 257.7 238 231.6 238.2 180.4L238.5 104.4L241.2 100.3C244.2 95.7 250.8 92 255.9 92C257.8 92 261.3 93 263.8 94.1Z" fill="currentColor"/>
</g>
<defs>
<clipPath id="clip0_29_1351">
<rect width="512" height="512" fill="white"/>
</clipPath>
</defs>
</svg>